# xmcd
# 
# Track frame offsets:
#     183
#     10740
#     30815
#     51243
#     70573
#     89623
#     108048
#     128640
#     201750
# 
# Disc length: 3049
# 
# Revision: 1
# Processed by: cddbd v1.5.2PL0 Copyright (c) Steve Scherf et al.
# Submitted via: fre:ac v1.0.31
# 
DISCID=640be709
DTITLE=Various Artist - Nomades
DYEAR=1992
DGENRE=New Age
TTITLE0=Jean Corriveau - Espace Nomade
TTITLE1=Jean Corriveau - Les seigneures du désert
TTITLE2=Jean Corriveau - Les beaux danseurs
TTITLE3=Jean Corriveau - Les cavaliers des steppes
TTITLE4=Jean Corriveau - Les éleveurs de neiges
TTITLE5=Jean Corriveau - Les Innu des six saisons
TTITLE6=Jean-François Houle - Nomades du troisième milénaire
TTITLE7=Nathalie Picard - L'oeuil amérindien , regard sur l'animal
TTITLE8=Jean Corriveau - Rencontre de deux mondes
EXTD=YEAR: 1992
EXTT0=
EXTT1=
EXTT2=
EXTT3=
EXTT4=
EXTT5=
EXTT6=
EXTT7=
EXTT8=
PLAYORDER=
